<svg width="64" height="64" viewBox="0 0 64 64" fill="none" xmlns="http://www.w3.org/2000/svg">
<path d="M58.52 36.2C55.4971 33.1305 53.6071 29.1248 53.16 24.84C52.9 12.56 41.58 2.23 29.31 3.11C9.70003 3.88 0.410034 28.89 14.76 42.2C17.4171 47.7875 18.8069 53.893 18.83 60.08C18.83 60.3452 18.9354 60.5996 19.1229 60.7871C19.3105 60.9746 19.5648 61.08 19.83 61.08H43.17C43.4068 61.0839 43.6373 61.0036 43.8204 60.8534C44.0035 60.7032 44.1274 60.493 44.17 60.26L45 55.47C45.4 53.68 46.49 53.33 48.38 52.87C50.59 52.33 53.62 51.6 53.19 46.23C53.1905 46.1826 53.205 46.1364 53.2317 46.0973C53.2584 46.0581 53.2961 46.0278 53.34 46.01C53.6449 45.8793 53.9191 45.6863 54.145 45.4434C54.3709 45.2005 54.5436 44.913 54.6519 44.5995C54.7601 44.2859 54.8017 43.9532 54.7738 43.6226C54.7459 43.2921 54.6493 42.971 54.49 42.68C54.776 42.5528 55.0337 42.3697 55.248 42.1415C55.4622 41.9133 55.6287 41.6446 55.7377 41.3512C55.8467 41.0577 55.896 40.7455 55.8827 40.4327C55.8693 40.12 55.7936 39.8131 55.66 39.53H57.1C57.4795 39.5162 57.8472 39.3947 58.1601 39.1797C58.473 38.9647 58.7183 38.6651 58.8672 38.3158C59.0162 37.9666 59.0626 37.5821 59.0011 37.2075C58.9396 36.8328 58.7728 36.4833 58.52 36.2V36.2Z" fill="#050505" id="id_101"></path>
<path d="M30.29 16.8201L30.85 18.0001C30.975 18.2199 31.1787 18.3841 31.4199 18.4598C31.6612 18.5355 31.9222 18.517 32.1503 18.4079C32.3785 18.2989 32.5568 18.1076 32.6496 17.8723C32.7423 17.6371 32.7424 17.3754 32.65 17.1401L32.09 16.0001C32.4006 15.7393 32.6733 15.4364 32.9 15.1001C33.4031 15.3009 33.9214 15.4614 34.45 15.5801C34.6842 15.5775 34.9101 15.4928 35.0883 15.3407C35.2664 15.1886 35.3855 14.9788 35.4248 14.7478C35.4641 14.5169 35.4211 14.2795 35.3032 14.0771C35.1854 13.8746 35.0002 13.72 34.78 13.6401L33.56 13.2101C33.5918 12.8054 33.5683 12.3983 33.49 12.0001C34.25 11.6001 35.62 11.2701 35.12 10.1001C35.0054 9.86186 34.8012 9.67869 34.552 9.59062C34.3028 9.50255 34.0288 9.51674 33.79 9.63008L32.62 10.2001C32.3646 9.8843 32.0608 9.61092 31.72 9.39008C31.97 8.57008 32.72 7.39008 31.53 6.89008C31.2794 6.80407 31.0048 6.82106 30.7667 6.93731C30.5286 7.05355 30.3463 7.25956 30.26 7.51008L29.83 8.73008C29.4254 8.69289 29.0176 8.71649 28.62 8.80008C28.22 8.04008 27.89 6.66008 26.72 7.16008C26.6008 7.21678 26.494 7.29653 26.4057 7.39472C26.3175 7.49291 26.2495 7.6076 26.2059 7.73217C26.1622 7.85675 26.1436 7.98874 26.1511 8.12054C26.1587 8.25234 26.1923 8.38133 26.25 8.50008L26.81 9.67008C26.4995 9.93104 26.2269 10.2339 26 10.5701L24.79 10.1401C24.5555 10.094 24.3122 10.1335 24.1043 10.2513C23.8963 10.3692 23.7375 10.5576 23.6565 10.7824C23.5755 11.0073 23.5777 11.2537 23.6627 11.4771C23.7477 11.7005 23.91 11.886 24.12 12.0001L25.35 12.4301C25.3081 12.8346 25.3317 13.2431 25.42 13.6401C24.66 14.0301 23.28 14.3701 23.78 15.5301C23.8367 15.6493 23.9164 15.7561 24.0146 15.8444C24.1128 15.9326 24.2275 16.0005 24.3521 16.0442C24.4767 16.0879 24.6087 16.1065 24.7405 16.0989C24.8723 16.0914 25.0012 16.0578 25.12 16.0001L26.29 15.4401C26.5459 15.7554 26.8496 16.0287 27.19 16.2501C26.93 17.0701 26.19 18.2501 27.37 18.7401C27.4941 18.7844 27.6257 18.8038 27.7573 18.7971C27.8889 18.7905 28.0179 18.7578 28.1368 18.7012C28.2557 18.6445 28.3623 18.5648 28.4504 18.4668C28.5385 18.3688 28.6063 18.2544 28.65 18.1301L29.08 16.9101C29.4854 16.9551 29.8957 16.9246 30.29 16.8201V16.8201ZM29.45 10.6501C29.7885 10.6558 30.1209 10.7413 30.42 10.8998C30.7192 11.0582 30.9768 11.2851 31.1717 11.5619C31.3666 11.8386 31.4934 12.1576 31.5418 12.4926C31.5901 12.8277 31.5587 13.1695 31.45 13.4901V13.4901C31.3211 13.8623 31.0921 14.1917 30.788 14.442C30.4839 14.6924 30.1167 14.854 29.7267 14.909C29.3367 14.964 28.939 14.9103 28.5776 14.7538C28.2161 14.5974 27.9049 14.3442 27.6781 14.0221C27.4513 13.7001 27.3178 13.3217 27.2923 12.9287C27.2667 12.5356 27.3502 12.1432 27.5334 11.7945C27.7166 11.4459 27.9925 11.1545 28.3306 10.9526C28.6688 10.7507 29.0561 10.646 29.45 10.6501V10.6501Z" fill="white" id="id_102"></path>
<path d="M38.6001 22.7201H37.6601C37.5886 22.4707 37.4915 22.2294 37.3701 22.0001L38.0401 21.3401C38.2263 21.1527 38.3309 20.8993 38.3309 20.6351C38.3309 20.3709 38.2263 20.1175 38.0401 19.9301C37.9471 19.8364 37.8365 19.762 37.7147 19.7112C37.5928 19.6604 37.4621 19.6343 37.3301 19.6343C37.1981 19.6343 37.0674 19.6604 36.9455 19.7112C36.8236 19.762 36.713 19.8364 36.6201 19.9301L35.9501 20.5901C35.7231 20.4614 35.4813 20.3606 35.2301 20.2901V19.3501C35.2301 19.0849 35.1247 18.8305 34.9372 18.643C34.7496 18.4555 34.4953 18.3501 34.2301 18.3501C33.9649 18.3501 33.7105 18.4555 33.523 18.643C33.3354 18.8305 33.2301 19.0849 33.2301 19.3501V20.3001C32.9792 20.3671 32.7374 20.4645 32.5101 20.5901L31.8501 19.9201C31.7571 19.8264 31.6465 19.752 31.5247 19.7012C31.4028 19.6504 31.2721 19.6243 31.1401 19.6243C31.0081 19.6243 30.8774 19.6504 30.7555 19.7012C30.6336 19.752 30.523 19.8264 30.4301 19.9201C30.2438 20.1075 30.1393 20.3609 30.1393 20.6251C30.1393 20.8893 30.2438 21.1427 30.4301 21.3301L31.0901 22.0101C30.9623 22.2388 30.8584 22.4801 30.7801 22.7301C30.7801 22.7301 29.8501 22.7301 29.8301 22.7301C29.5649 22.7301 29.3105 22.8355 29.123 23.023C28.9354 23.2105 28.8301 23.4649 28.8301 23.7301C28.8301 23.9953 28.9354 24.2497 29.123 24.4372C29.3105 24.6247 29.5649 24.7301 29.8301 24.7301H30.8301C30.8927 24.9824 30.9903 25.2248 31.1201 25.4501L30.4401 26.1101C30.3462 26.202 30.2713 26.3115 30.2197 26.4324C30.1682 26.5533 30.1409 26.6831 30.1395 26.8145C30.1381 26.9459 30.1626 27.0763 30.2116 27.1982C30.2606 27.3201 30.3332 27.4312 30.4251 27.5251C30.517 27.619 30.6265 27.6939 30.7474 27.7454C30.8682 27.797 30.9981 27.8243 31.1295 27.8257C31.2609 27.827 31.3912 27.8025 31.5132 27.7535C31.6351 27.7046 31.7462 27.632 31.8401 27.5401L32.5201 26.8801C32.7445 27.007 32.9827 27.1077 33.2301 27.1801V28.0001C33.2301 28.2653 33.3354 28.5197 33.523 28.7072C33.7105 28.8947 33.9649 29.0001 34.2301 29.0001C34.4953 29.0001 34.7496 28.8947 34.9372 28.7072C35.1247 28.5197 35.2301 28.2653 35.2301 28.0001V27.0501C35.4842 26.9831 35.7293 26.8857 35.9601 26.7601L36.6201 27.4301C36.8074 27.6163 37.0609 27.7209 37.3251 27.7209C37.5893 27.7209 37.8427 27.6163 38.0301 27.4301C38.2163 27.2427 38.3209 26.9893 38.3209 26.7251C38.3209 26.4609 38.2163 26.2075 38.0301 26.0201L37.3701 25.3401C37.4946 25.1111 37.5952 24.8698 37.6701 24.6201C37.6701 24.6201 38.6101 24.6201 38.6701 24.6201C38.8681 24.5473 39.038 24.4138 39.1555 24.2386C39.273 24.0634 39.3321 23.8555 39.3243 23.6447C39.3166 23.4339 39.2423 23.2309 39.1122 23.0649C38.9822 22.8988 38.8029 22.7781 38.6001 22.7201ZM35.3301 24.8101C35.1804 24.9565 35.0033 25.072 34.8089 25.15C34.6146 25.228 34.4068 25.2669 34.1974 25.2646C33.7745 25.2599 33.3708 25.0874 33.0751 24.7851C32.9287 24.6354 32.8132 24.4583 32.7352 24.264C32.6572 24.0696 32.6182 23.8618 32.6206 23.6524C32.6252 23.2295 32.7977 22.8258 33.1001 22.5301C33.4037 22.2344 33.8125 22.0714 34.2363 22.077C34.6601 22.0827 35.0644 22.2564 35.3601 22.5601C35.6558 22.8638 35.8188 23.2725 35.8131 23.6963C35.8075 24.1201 35.6338 24.5244 35.3301 24.8201V24.8101Z" fill="white" id="id_103"></path>
<path d="M28 25.9299L25.85 25.1799C25.9773 24.3864 25.933 23.5748 25.72 22.7999L27.77 21.7999C27.8892 21.7432 27.996 21.6635 28.0843 21.5653C28.1725 21.4671 28.2404 21.3524 28.2841 21.2278C28.3278 21.1033 28.3464 20.9713 28.3388 20.8395C28.3313 20.7077 28.2977 20.5787 28.24 20.4599C28.1825 20.339 28.1013 20.2309 28.0012 20.1419C27.9011 20.053 27.7842 19.985 27.6573 19.9421C27.5305 19.8992 27.3963 19.8823 27.2628 19.8922C27.1293 19.9021 26.9991 19.9387 26.88 19.9999L24.83 20.9999C24.3591 20.3497 23.7515 19.8104 23.05 19.4199L23.81 17.2699C23.8975 17.0193 23.8819 16.7442 23.7665 16.5051C23.6512 16.2659 23.4456 16.0824 23.195 15.9949C22.9443 15.9074 22.6692 15.923 22.4301 16.0384C22.191 16.1537 22.0075 16.3593 21.92 16.6099L21.17 18.7599C20.3765 18.6326 19.5649 18.6769 18.79 18.8899L17.79 16.8399C17.7329 16.7211 17.6529 16.6146 17.5546 16.5267C17.4564 16.4388 17.3417 16.371 17.2173 16.3274C17.0929 16.2838 16.9611 16.2651 16.8294 16.2723C16.6978 16.2796 16.5688 16.3128 16.45 16.3699C16.3311 16.4271 16.2247 16.507 16.1368 16.6053C16.0488 16.7035 15.9811 16.8182 15.9375 16.9426C15.8493 17.1939 15.8646 17.4699 15.98 17.7099L16.98 19.7599C16.3272 20.2309 15.7846 20.8383 15.39 21.5399L13.25 20.7799C13.1259 20.7359 12.9943 20.7168 12.8628 20.7237C12.7314 20.7305 12.6025 20.7632 12.4836 20.8198C12.3648 20.8765 12.2582 20.956 12.1701 21.0538C12.082 21.1516 12.014 21.2658 11.97 21.3899C11.926 21.514 11.9069 21.6456 11.9137 21.7771C11.9206 21.9086 11.9532 22.0374 12.0099 22.1563C12.0665 22.2751 12.146 22.3817 12.2438 22.4698C12.3417 22.5579 12.4559 22.6259 12.58 22.6699L14.73 23.4199C14.6001 24.2139 14.6479 25.0267 14.87 25.7999L12.82 26.7999C12.58 26.914 12.3951 27.1187 12.306 27.3691C12.2169 27.6194 12.2309 27.8949 12.345 28.1349C12.459 28.3749 12.6637 28.5598 12.9141 28.6489C13.1645 28.738 13.44 28.724 13.68 28.6099L15.73 27.6099C16.2064 28.2578 16.8127 28.7993 17.51 29.1999L16.76 31.3399C16.6725 31.5906 16.6881 31.8657 16.8034 32.1048C16.9187 32.3439 17.1243 32.5274 17.375 32.6149C17.6256 32.7025 17.9007 32.6868 18.1398 32.5715C18.379 32.4562 18.5625 32.2506 18.65 31.9999L19.4 29.8599C20.194 29.9885 21.0065 29.9407 21.78 29.7199L22.78 31.7699C22.8348 31.8918 22.9134 32.0015 23.0114 32.0925C23.1093 32.1835 23.2244 32.254 23.35 32.2997C23.4756 32.3454 23.6091 32.3655 23.7426 32.3587C23.8761 32.352 24.0069 32.3185 24.1273 32.2603C24.2476 32.2022 24.3551 32.1205 24.4433 32.0201C24.5315 31.9197 24.5987 31.8026 24.6409 31.6757C24.6831 31.5489 24.6995 31.4149 24.689 31.2817C24.6785 31.1484 24.6415 31.0186 24.58 30.8999L23.58 28.8499C24.2298 28.3826 24.7691 27.7784 25.16 27.0799C25.39 27.1299 27.45 27.9399 27.64 27.8899C27.8893 27.9141 28.1387 27.8438 28.3387 27.693C28.5387 27.5421 28.6748 27.3217 28.7201 27.0753C28.7653 26.8288 28.7164 26.5744 28.5831 26.3623C28.4498 26.1502 28.2417 25.9959 28 25.9299V25.9299ZM19.11 27.7199C14.62 25.9999 17 19.4099 21.49 20.8899C22.384 21.2171 23.1132 21.8832 23.5196 22.7442C23.926 23.6051 23.9769 24.5914 23.6613 25.4896C23.3457 26.3877 22.6889 27.1254 21.8333 27.5429C20.9777 27.9603 19.9921 28.0239 19.09 27.7199H19.11Z" fill="white" id="id_104"></path>
</svg>