<?xml version="1.0" encoding="UTF-8" standalone="no"?> <svg id="Layer_1" data-name="Layer 1" xmlns="http://www.w3.org/2000/svg" viewBox="0 0 48 48"><title>Opinion</title><path d="M14,41V38a9.965,9.965,0,0,1,2.367-6.442A7.007,7.007,0,0,0,14.321,30.4a5.05,5.05,0,0,0,2.266-2.433,7.82,7.82,0,0,1-.4-4.686A4.99,4.99,0,1,0,9.679,30.4,7.005,7.005,0,0,0,5,37v4a2,2,0,0,0,2,2h7.424A4.95,4.95,0,0,1,14,41Z"/><path d="M38.321,30.4a4.988,4.988,0,1,0-6.511-7.119,7.82,7.82,0,0,1-.4,4.686A5.05,5.05,0,0,0,33.679,30.4a7.007,7.007,0,0,0-2.046,1.154A9.965,9.965,0,0,1,34,38v3a4.95,4.95,0,0,1-.424,2H41a2,2,0,0,0,2-2V37A7.005,7.005,0,0,0,38.321,30.4Z"/><path d="M26.551,30.424a6,6,0,1,0-5.1,0A8.01,8.01,0,0,0,16,38v3a3,3,0,0,0,3,3H29a3,3,0,0,0,3-3V38A8.01,8.01,0,0,0,26.551,30.424Z"/><path d="M13,13V7a5,5,0,0,1,.1-1H7A3,3,0,0,0,4,9v6a3,3,0,0,0,3,3H9.586l1,1a2,2,0,0,0,2.828,0l1-1H17a2.942,2.942,0,0,0,.5-.051A4.989,4.989,0,0,1,13,13Z"/><path d="M41,6H34.9A5,5,0,0,1,35,7v6a4.989,4.989,0,0,1-4.5,4.949A2.942,2.942,0,0,0,31,18h2.586l1,1a2,2,0,0,0,2.828,0l1-1H41a3,3,0,0,0,3-3V9A3,3,0,0,0,41,6Z"/><path d="M30,4H18a3,3,0,0,0-3,3v6a3,3,0,0,0,3,3h3.586l1,1a2,2,0,0,0,2.828,0l1-1H30a3,3,0,0,0,3-3V7A3,3,0,0,0,30,4Z"/></svg>